<?xml version="1.0" standalone="no"?>
<!DOCTYPE svg PUBLIC "-//W3C//DTD SVG 20010904//EN"
 "http://www.w3.org/TR/2001/REC-SVG-20010904/DTD/svg10.dtd">
<svg version="1.0" xmlns="http://www.w3.org/2000/svg"
 width="512.000000pt" height="512.000000pt" viewBox="0 0 512.000000 512.000000"
 preserveAspectRatio="xMidYMid meet">

<g transform="translate(0.000000,512.000000) scale(0.100000,-0.100000)"
fill="#000000" stroke="none">
<path d="M2410 4952 l0 -167 -52 -25 c-68 -31 -167 -130 -198 -197 l-25 -53
-281 0 -281 0 -38 -55 c-136 -198 -352 -280 -609 -230 -150 28 -280 121 -375
268 -26 40 -48 64 -55 60 -24 -14 -222 -146 -230 -153 -14 -14 112 -186 189
-258 84 -78 155 -122 268 -169 45 -18 81 -37 80 -42 -2 -6 -183 -307 -403
-669 -399 -658 -400 -660 -400 -715 0 -195 76 -425 196 -593 137 -194 362
-347 599 -411 88 -23 120 -26 260 -27 137 0 173 3 249 23 456 119 775 499 803
957 l6 101 -396 660 c-218 362 -397 665 -399 672 -2 8 17 20 47 31 116 40 243
120 325 204 l44 46 201 0 200 0 25 -52 c31 -68 130 -167 198 -198 l52 -25 0
-1517 0 -1518 -600 0 -600 0 0 -300 0 -300 -150 0 -150 0 0 -150 0 -150 1650
0 1650 0 0 150 0 150 -150 0 -150 0 0 300 0 300 -600 0 -600 0 0 1518 0 1517
53 25 c67 31 166 130 197 198 l25 52 200 0 201 0 44 -46 c82 -84 209 -164 325
-204 30 -11 49 -23 47 -31 -2 -7 -181 -310 -399 -672 l-396 -660 6 -101 c21
-329 200 -636 479 -816 97 -63 199 -107 328 -143 62 -16 104 -20 240 -20 146
0 176 3 262 26 412 110 716 441 783 852 8 50 15 116 15 149 l0 58 -400 660
c-220 362 -401 664 -403 670 -1 5 21 18 48 28 150 52 289 150 387 274 l39 49
-118 70 c-65 38 -123 71 -129 74 -6 2 -38 -23 -72 -56 -167 -163 -458 -209
-677 -106 -67 32 -158 114 -210 190 l-38 55 -281 0 -281 0 -25 53 c-13 28 -51
79 -85 112 -33 34 -84 72 -112 85 l-53 25 0 167 0 168 -150 0 -150 0 0 -168z
m220 -462 c45 -23 80 -80 80 -130 0 -50 -35 -107 -80 -130 -21 -11 -53 -20
-70 -20 -50 0 -107 35 -130 80 -38 74 -16 153 56 196 48 29 92 30 144 4z
m-1252 -1251 c172 -287 311 -523 309 -525 -2 -2 -288 -3 -636 -2 l-631 3 316
523 c175 287 320 522 323 522 3 0 147 -235 319 -521z m3007 -4 l315 -520 -631
-3 c-348 -1 -634 0 -636 2 -6 6 621 1046 629 1044 4 -2 150 -237 323 -523z
m-2595 -840 c0 -31 -59 -175 -95 -231 -44 -69 -143 -175 -201 -215 -62 -43
-171 -94 -244 -115 -89 -25 -288 -25 -379 0 -252 69 -448 251 -532 493 -10 31
-19 62 -19 70 0 11 126 13 735 13 640 0 735 -2 735 -15z m3010 2 c0 -8 -8 -38
-19 -68 -84 -246 -277 -425 -532 -495 -89 -25 -291 -25 -374 -1 -249 74 -438
246 -519 475 -14 40 -26 80 -26 88 0 12 102 14 735 14 609 0 735 -2 735 -13z
m-1190 -1947 l0 -150 -1050 0 -1050 0 0 150 0 150 1050 0 1050 0 0 -150z"/>
</g>
</svg>
